<?xml version="1.0" encoding="UTF-8" standalone="no"?>
<svg
   xmlns:dc="http://purl.org/dc/elements/1.1/"
   xmlns:cc="http://creativecommons.org/ns#"
   xmlns:rdf="http://www.w3.org/1999/02/22-rdf-syntax-ns#"
   xmlns:svg="http://www.w3.org/2000/svg"
   xmlns="http://www.w3.org/2000/svg"
   xmlns:sodipodi="http://sodipodi.sourceforge.net/DTD/sodipodi-0.dtd"
   xmlns:inkscape="http://www.inkscape.org/namespaces/inkscape"
   version="1.1"
   id="svg2"
   xml:space="preserve"
   width="384"
   height="153.49333"
   viewBox="0 0 384 153.49333"
   sodipodi:docname="carrier_logo_rgb.eps"><metadata
     id="metadata8"><rdf:RDF><cc:Work
         rdf:about=""><dc:format>image/svg+xml</dc:format><dc:type
           rdf:resource="http://purl.org/dc/dcmitype/StillImage" /></cc:Work></rdf:RDF></metadata><defs
     id="defs6" /><sodipodi:namedview
     pagecolor="#ffffff"
     bordercolor="#666666"
     borderopacity="1"
     objecttolerance="10"
     gridtolerance="10"
     guidetolerance="10"
     inkscape:pageopacity="0"
     inkscape:pageshadow="2"
     inkscape:window-width="640"
     inkscape:window-height="480"
     id="namedview4" /><g
     id="g10"
     inkscape:groupmode="layer"
     inkscape:label="ink_ext_XXXXXX"
     transform="matrix(1.3333333,0,0,-1.3333333,0,153.49333)"><g
       id="g12"
       transform="scale(0.1)"><path
         d="M 1440,1151.23 C 643.73,1151.23 0,893.16 0,575.613 0,258.066 643.73,0 1440,0 c 796.27,0 1440,258.066 1440,575.613 0,317.547 -643.73,575.617 -1440,575.617"
         style="fill:#273270;fill-opacity:1;fill-rule:nonzero;stroke:none"
         id="path14" /><path
         d="m 2273.68,412.527 h -64.28 c 0,0 53.73,152.539 70.04,206.258 2.87,9.598 4.8,20.153 4.8,24.949 0,3.836 -1.93,7.676 -6.72,7.676 -6.71,0 -23.03,-7.676 -52.76,-49.887 h -17.27 c 35.5,58.52 79.63,97.856 110.32,97.856 20.15,0 28.78,-11.516 28.78,-29.742 0,-12.469 -5.75,-36.453 -19.18,-84.422 57.56,104.566 94.02,118.957 117.04,117.996 23.99,0 37.42,-16.309 37.42,-36.453 0,-21.106 -16.31,-46.051 -41.25,-46.051 -16.31,0 -27.83,12.477 -27.83,33.578 0,1.918 0,4.801 0,6.715 -16.31,-8.633 -58.52,-46.047 -109.36,-169.801 z m -753.09,0 h -64.28 c 0,0 53.72,152.539 70.03,206.258 2.88,9.598 4.8,20.153 4.8,24.949 0,3.836 -1.92,7.676 -6.72,7.676 -6.71,0 -23.02,-7.676 -52.76,-49.887 h -17.27 c 35.49,58.52 79.62,97.856 110.33,97.856 20.14,0 28.78,-11.516 28.78,-29.742 0,-12.469 -5.76,-36.453 -19.19,-84.422 57.57,104.566 94.02,118.957 117.04,117.996 23.98,0 37.42,-16.309 37.42,-36.453 0,-21.106 -16.31,-46.051 -41.25,-46.051 -16.32,0 -27.82,12.477 -27.82,33.578 0,1.918 0,4.801 0,6.715 -16.31,-8.633 -58.53,-46.047 -109.38,-169.801 z m 364.56,369.356 c 0,-27.82 -23.03,-54.688 -49.9,-54.688 -15.35,0 -26.85,9.594 -26.85,29.743 0,27.82 23.02,54.679 49.88,54.679 15.35,0 26.87,-9.586 26.87,-29.734 z m -93.06,-83.465 h 64.28 l -76.76,-215.859 c -0.96,-2.871 -4.8,-14.387 -4.8,-23.985 0,-6.711 2.89,-9.59 7.68,-9.59 17.27,0 47.01,27.821 65.23,52.762 H 1865 c -28.78,-47.969 -79.63,-97.851 -125.68,-97.851 -22.06,0 -36.46,13.429 -36.46,34.531 0,12.48 3.84,32.629 15.35,63.32 z m -983.352,94.973 c -9.593,2.882 -23.019,4.8 -36.453,4.8 -128.555,0 -239.84,-123.757 -239.84,-249.433 0,-92.102 56.602,-116.082 102.653,-116.082 53.718,0 92.097,21.101 127.593,52.762 h 19.188 c -26.863,-37.411 -84.422,-84.422 -167.891,-84.422 -114.16,0 -158.289,69.07 -158.289,148.699 0,147.746 157.332,272.461 322.344,272.461 64.277,0 100.73,-23.028 100.73,-55.645 0,-21.109 -15.351,-39.336 -41.253,-39.336 -21.102,0 -37.415,12.477 -37.415,35.5 0,7.672 3.84,21.106 8.633,30.696 z M 1239.49,412.527 h -64.28 c 0,0 53.73,152.539 70.04,206.258 2.88,9.598 4.8,20.153 4.8,24.949 0,3.836 -1.92,7.676 -6.72,7.676 -6.71,0 -23.02,-7.676 -52.76,-49.887 h -17.27 c 35.49,58.52 79.62,97.856 110.32,97.856 20.15,0 28.79,-11.516 28.79,-29.742 0,-12.469 -5.76,-36.453 -19.19,-84.422 57.56,104.566 94.02,118.957 117.04,117.996 23.98,0 37.42,-16.309 37.42,-36.453 0,-21.106 -16.31,-46.051 -41.26,-46.051 -16.31,0 -27.82,12.477 -27.82,33.578 0,1.918 0,4.801 0,6.715 -16.31,-8.633 -58.52,-46.047 -109.37,-169.801 z m 843.28,272.457 c 22.06,0 30.71,-16.308 30.71,-35.496 0,-29.738 -37.43,-98.816 -137.2,-100.73 9.6,58.519 55.64,136.226 106.49,136.226 z m -61.39,-247.515 c -36.46,0 -52.78,26.867 -52.78,56.601 0,10.559 0.97,25.91 2.88,34.543 140.07,4.793 202.43,54.68 202.43,108.407 0,39.332 -32.62,66.195 -83.46,66.195 -115.13,0 -193.79,-109.367 -193.79,-200.512 0,-65.234 39.33,-98.808 104.57,-98.808 62.35,0 123.75,49.882 150.62,91.14 h -16.31 c -23.99,-23.98 -64.28,-57.566 -114.16,-57.566 z M 1042.82,619.75 c 0,0 -21.1,-50.844 -42.2,-91.137 -17.276,-32.621 -55.647,-81.543 -83.472,-81.543 -20.144,0 -30.699,14.383 -30.699,38.368 0,81.546 87.301,194.75 136.231,194.75 16.31,0 25.9,-14.387 25.9,-32.618 0,-8.632 -1.92,-17.269 -5.76,-27.82 z m 76.76,-118.004 c -11.52,-18.223 -37.42,-49.883 -55.65,-49.883 -4.79,0 -7.68,2.871 -7.68,8.633 0,7.676 2.89,17.266 2.89,17.266 l 77.7,220.656 h -65.23 l -8.64,-23.984 c -11.51,18.226 -26.86,24.945 -46.05,24.945 -75.787,0 -199.549,-108.41 -199.549,-219.691 0,-47.969 28.785,-75.793 68.117,-75.793 39.336,0 74.832,32.617 100.735,71.953 h 1.918 c -0.957,-6.719 -2.875,-17.274 -2.875,-26.864 0,-23.988 12.468,-42.207 36.454,-42.207 53.72,0 100.73,70.985 116.08,94.969 z M 1440,98.8203 C 680.188,98.8203 64.2773,313.711 64.2773,575.617 c 0,261.906 615.9107,476.803 1375.7227,476.803 759.81,0 1375.72,-214.897 1375.72,-476.803 C 2815.72,313.711 2199.81,98.8203 1440,98.8203 Z M 1440,1086 C 669.633,1086 45.0898,856.711 45.0898,575.617 45.0898,294.531 669.633,65.2383 1440,65.2383 c 770.37,0 1394.91,229.2927 1394.91,510.3787 C 2834.91,856.711 2210.37,1086 1440,1086"
         style="fill:#ffffff;fill-opacity:1;fill-rule:nonzero;stroke:none"
         id="path16" /></g></g></svg>
